<svg width="111" height="23" viewBox="0 0 111 23" fill="none" xmlns="http://www.w3.org/2000/svg">
<path d="M0.969797 18.28C1.0898 17.584 1.2938 16.672 1.5818 15.544C1.8938 14.392 2.2538 13.18 2.6618 11.908C3.0698 10.612 3.5018 9.316 3.9578 8.02C4.4138 6.724 4.8578 5.56 5.2898 4.528C5.6018 3.784 5.8778 3.208 6.1178 2.8C6.3578 2.368 6.6218 2.008 6.9098 1.72C7.2458 1.768 7.5938 1.852 7.9538 1.972C8.3138 2.092 8.6618 2.236 8.9978 2.404C9.3338 2.572 9.6338 2.752 9.8978 2.944C10.1618 3.112 10.3658 3.28 10.5098 3.448C9.8618 4.216 9.2858 5.092 8.7818 6.076C8.3018 7.06 7.8098 8.32 7.3058 9.856C8.6018 8.704 9.7418 7.6 10.7258 6.544C11.7338 5.488 12.6698 4.312 13.5338 3.016C13.6778 2.896 13.9298 2.836 14.2898 2.836C14.6258 2.836 14.9498 2.896 15.2618 3.016C15.5738 3.112 15.7898 3.256 15.9098 3.448C15.4778 4.6 15.2618 5.74 15.2618 6.868C15.2618 7.924 15.4178 8.716 15.7298 9.244C15.7058 9.388 15.5378 9.664 15.2258 10.072C14.9378 10.48 14.6138 10.864 14.2538 11.224C13.6058 10.888 13.0298 10.432 12.5258 9.856C12.0218 9.256 11.6498 8.608 11.4098 7.912C10.2818 8.704 9.3218 9.484 8.5298 10.252C7.7378 10.996 7.0538 11.836 6.4778 12.772C5.9258 13.684 5.4458 14.74 5.0378 15.94C4.6538 17.14 4.2818 18.568 3.9218 20.224C3.7058 20.2 3.4418 20.116 3.1298 19.972C2.8418 19.852 2.5418 19.696 2.2298 19.504C1.9418 19.312 1.6778 19.108 1.4378 18.892C1.1978 18.676 1.0418 18.472 0.969797 18.28ZM32.3733 4.456C32.6133 4.456 32.8893 4.504 33.2013 4.6C33.5373 4.672 33.8373 4.78 34.1013 4.924C34.3653 5.044 34.5813 5.176 34.7493 5.32C34.9413 5.464 35.0373 5.596 35.0373 5.716C34.5573 6.724 34.1133 7.744 33.7053 8.776C33.2973 9.784 32.9493 10.756 32.6613 11.692C32.3733 12.628 32.1453 13.504 31.9773 14.32C31.8333 15.136 31.7613 15.844 31.7613 16.444C31.7613 17.116 31.8333 17.68 31.9773 18.136C32.1213 18.568 32.3613 18.88 32.6973 19.072C32.4093 19.264 32.0373 19.42 31.5813 19.54C31.1253 19.66 30.7173 19.72 30.3573 19.72C29.0613 19.72 28.4133 18.832 28.4133 17.056C28.4133 15.688 28.8693 13.816 29.7813 11.44C29.3013 12.544 28.7493 13.588 28.1253 14.572C27.5013 15.532 26.8653 16.384 26.2173 17.128C25.5693 17.872 24.9093 18.484 24.2373 18.964C23.5893 19.42 22.9893 19.696 22.4373 19.792C21.5493 19.744 20.8293 19.324 20.2773 18.532C19.7253 17.716 19.4493 16.684 19.4493 15.436C19.4493 14.092 19.7373 12.676 20.3133 11.188C20.8893 9.7 21.6213 8.32 22.5093 7.048C23.4213 5.776 24.4053 4.72 25.4613 3.88C26.5173 3.016 27.5373 2.56 28.5213 2.512C28.7613 2.584 29.0253 2.728 29.3133 2.944C29.6253 3.16 29.9133 3.412 30.1773 3.7C30.4653 3.988 30.7053 4.288 30.8973 4.6C31.0893 4.888 31.1973 5.14 31.2213 5.356C30.2613 5.5 29.2653 5.968 28.2333 6.76C27.2253 7.552 26.3013 8.512 25.4613 9.64C24.6453 10.744 23.9733 11.932 23.4453 13.204C22.9173 14.476 22.6533 15.664 22.6533 16.768C22.6533 17.224 22.8213 17.512 23.1573 17.632C23.8533 17.488 24.6573 16.9 25.5693 15.868C26.4813 14.812 27.5853 13.192 28.8813 11.008C29.1213 10.576 29.3853 10.096 29.6733 9.568C29.9853 9.04 30.2973 8.488 30.6093 7.912C30.9213 7.336 31.2213 6.76 31.5093 6.184C31.8213 5.584 32.1093 5.008 32.3733 4.456ZM39.0269 18.496C39.0269 18.112 39.3629 17.5 40.0349 16.66C40.7069 15.796 41.5949 14.824 42.6989 13.744C43.8269 12.64 45.1109 11.488 46.5509 10.288C48.0149 9.064 49.5269 7.888 51.0869 6.76C50.0789 6.544 49.2749 6.388 48.6749 6.292C48.0989 6.196 47.6309 6.148 47.2709 6.148C46.5749 6.148 45.9509 6.244 45.3989 6.436C44.8469 6.628 44.3069 6.94 43.7789 7.372C42.6749 6.412 42.1229 5.308 42.1229 4.06C42.1229 3.676 42.1349 3.448 42.1589 3.376C42.5669 2.968 43.0469 2.656 43.5989 2.44C44.1749 2.224 44.7749 2.116 45.3989 2.116C46.0709 2.116 46.7549 2.224 47.4509 2.44C48.1469 2.656 48.8309 2.896 49.5029 3.16C50.1749 3.4 50.7989 3.628 51.3749 3.844C51.9749 4.06 52.5029 4.168 52.9589 4.168C53.2229 4.168 53.5109 4.132 53.8229 4.06C54.1589 3.988 54.4349 3.892 54.6509 3.772C54.8669 3.94 55.0589 4.276 55.2269 4.78C55.4189 5.284 55.5149 5.776 55.5149 6.256C54.7709 6.544 53.8709 7.048 52.8149 7.768C51.7829 8.488 50.7269 9.316 49.6469 10.252C48.5669 11.188 47.5109 12.184 46.4789 13.24C45.4709 14.296 44.6309 15.292 43.9589 16.228C44.4629 16.444 45.1469 16.552 46.0109 16.552C46.5629 16.552 47.1269 16.504 47.7029 16.408C48.2789 16.312 48.8309 16.18 49.3589 16.012C49.9109 15.844 50.4149 15.652 50.8709 15.436C51.3269 15.196 51.7109 14.944 52.0229 14.68C53.1509 15.4 53.7149 16.456 53.7149 17.848C53.7149 18.04 53.7029 18.196 53.6789 18.316C53.6789 18.436 53.6669 18.58 53.6429 18.748C52.5389 19.444 51.3389 19.792 50.0429 19.792C49.3949 19.792 48.7469 19.72 48.0989 19.576C47.4509 19.456 46.8149 19.324 46.1909 19.18C45.5909 19.036 45.0149 18.904 44.4629 18.784C43.9349 18.64 43.4429 18.568 42.9869 18.568C41.8349 18.568 40.8989 19.108 40.1789 20.188C39.8669 20.068 39.6029 19.852 39.3869 19.54C39.1949 19.228 39.0749 18.88 39.0269 18.496ZM64.9052 20.26C63.5372 20.116 62.4452 19.516 61.6292 18.46C60.8132 17.404 60.4052 16.06 60.4052 14.428C60.4052 13.468 60.5492 12.472 60.8372 11.44C61.1252 10.408 61.5332 9.412 62.0612 8.452C62.5892 7.468 63.2132 6.544 63.9332 5.68C64.6532 4.816 65.4332 4.072 66.2732 3.448C67.5932 2.464 68.8292 1.972 69.9812 1.972C70.7492 2.38 71.5052 3.232 72.2492 4.528C72.3692 4.528 72.4772 4.528 72.5732 4.528C72.6692 4.504 72.7772 4.492 72.8972 4.492C74.1692 4.492 74.8052 5.62 74.8052 7.876C74.8052 9.388 74.5532 10.828 74.0492 12.196C73.5692 13.54 72.8852 14.764 71.9972 15.868C71.1332 16.972 70.0892 17.908 68.8652 18.676C67.6652 19.42 66.3452 19.948 64.9052 20.26ZM66.7412 8.92C66.3332 9.472 65.9492 10.072 65.5892 10.72C65.2292 11.368 64.9172 12.028 64.6532 12.7C64.3892 13.348 64.1852 13.984 64.0412 14.608C63.8972 15.208 63.8252 15.748 63.8252 16.228C63.8252 16.804 63.9212 17.356 64.1132 17.884C64.3052 18.412 64.5212 18.712 64.7612 18.784C65.8412 18.544 66.8252 18.1 67.7132 17.452C68.6252 16.78 69.4052 15.952 70.0532 14.968C70.7252 13.984 71.2412 12.868 71.6012 11.62C71.9852 10.372 72.1772 9.04 72.1772 7.624C72.1772 7 72.1412 6.508 72.0692 6.148C71.9972 5.788 71.8772 5.476 71.7092 5.212C70.6532 5.524 69.7052 6.028 68.8652 6.724C68.0492 7.42 67.3412 8.152 66.7412 8.92ZM79.2839 18.28C79.4039 17.584 79.6079 16.672 79.8959 15.544C80.2079 14.392 80.5679 13.18 80.9759 11.908C81.3839 10.612 81.8159 9.316 82.2719 8.02C82.7279 6.724 83.1719 5.56 83.6039 4.528C83.9159 3.784 84.1919 3.208 84.4319 2.8C84.6719 2.368 84.9359 2.008 85.2239 1.72C85.5599 1.768 85.9079 1.852 86.2679 1.972C86.6279 2.092 86.9759 2.236 87.3119 2.404C87.6479 2.572 87.9479 2.752 88.2119 2.944C88.4759 3.112 88.6799 3.28 88.8239 3.448C88.1759 4.216 87.5999 5.092 87.0959 6.076C86.6159 7.06 86.1239 8.32 85.6199 9.856C86.9159 8.704 88.0559 7.6 89.0399 6.544C90.0479 5.488 90.9839 4.312 91.8479 3.016C91.9919 2.896 92.2439 2.836 92.6039 2.836C92.9399 2.836 93.2639 2.896 93.5759 3.016C93.8879 3.112 94.1039 3.256 94.2239 3.448C93.7919 4.6 93.5759 5.74 93.5759 6.868C93.5759 7.924 93.7319 8.716 94.0439 9.244C94.0199 9.388 93.8519 9.664 93.5399 10.072C93.2519 10.48 92.9279 10.864 92.5679 11.224C91.9199 10.888 91.3439 10.432 90.8399 9.856C90.3359 9.256 89.9639 8.608 89.7239 7.912C88.5959 8.704 87.6359 9.484 86.8439 10.252C86.0519 10.996 85.3679 11.836 84.7919 12.772C84.2399 13.684 83.7599 14.74 83.3519 15.94C82.9679 17.14 82.5959 18.568 82.2359 20.224C82.0199 20.2 81.7559 20.116 81.4439 19.972C81.1559 19.852 80.8559 19.696 80.5439 19.504C80.2559 19.312 79.9919 19.108 79.7519 18.892C79.5119 18.676 79.3559 18.472 79.2839 18.28ZM110.125 4.672C110.101 5.128 110.017 5.608 109.873 6.112C109.753 6.592 109.597 7.036 109.405 7.444C109.213 7.828 109.009 8.152 108.793 8.416C108.577 8.68 108.373 8.812 108.181 8.812C107.917 8.788 107.761 8.608 107.713 8.272C107.713 8.2 107.737 8.092 107.785 7.948C107.857 7.78 107.929 7.6 108.001 7.408C108.073 7.216 108.133 7.024 108.181 6.832C108.253 6.64 108.289 6.472 108.289 6.328C108.289 5.992 108.205 5.716 108.037 5.5C107.893 5.26 107.689 5.14 107.425 5.14C106.465 5.14 105.733 5.74 105.229 6.94C104.725 8.14 104.473 9.904 104.473 12.232C104.473 12.472 104.485 12.616 104.509 12.664C105.013 12.64 105.457 12.628 105.841 12.628C106.249 12.604 106.645 12.592 107.029 12.592C107.053 12.64 107.065 12.736 107.065 12.88C107.065 13.096 107.017 13.252 106.921 13.348C106.369 13.468 105.925 13.576 105.589 13.672C105.277 13.744 105.037 13.816 104.869 13.888C104.701 13.96 104.593 14.044 104.545 14.14C104.521 14.212 104.509 14.32 104.509 14.464C104.509 14.656 104.509 14.848 104.509 15.04C104.533 15.232 104.545 15.472 104.545 15.76C104.545 17.776 103.993 19.396 102.889 20.62C101.809 21.844 100.297 22.552 98.3529 22.744C98.0169 22.72 97.6689 22.624 97.3089 22.456C96.9489 22.288 96.6009 22.072 96.2649 21.808C95.9529 21.544 95.6769 21.244 95.4369 20.908C95.1969 20.596 95.0289 20.272 94.9329 19.936C94.9329 19.024 95.1249 18.16 95.5089 17.344C95.8929 16.504 96.4089 15.772 97.0569 15.148C97.7289 14.5 98.5089 13.984 99.3969 13.6C100.309 13.192 101.293 12.952 102.349 12.88C102.349 12.28 102.289 11.692 102.169 11.116C102.049 10.54 101.917 9.988 101.773 9.46C101.653 8.908 101.533 8.38 101.413 7.876C101.293 7.348 101.233 6.832 101.233 6.328C101.233 5.68 101.365 5.044 101.629 4.42C101.893 3.772 102.241 3.184 102.673 2.656C103.105 2.104 103.609 1.636 104.185 1.252C104.761 0.868 105.361 0.603999 105.985 0.459998C106.249 0.531999 106.597 0.747999 107.029 1.108C107.485 1.444 107.929 1.828 108.361 2.26C108.793 2.692 109.177 3.136 109.513 3.592C109.849 4.024 110.053 4.384 110.125 4.672ZM98.2449 21.088C98.8209 20.848 99.3609 20.5 99.8649 20.044C100.393 19.588 100.849 19.072 101.233 18.496C101.617 17.92 101.917 17.308 102.133 16.66C102.373 16.012 102.493 15.376 102.493 14.752C102.013 14.824 101.485 15.052 100.909 15.436C100.333 15.796 99.7929 16.24 99.2889 16.768C98.7849 17.272 98.3649 17.8 98.0289 18.352C97.6929 18.904 97.5249 19.384 97.5249 19.792C97.5249 20.32 97.7649 20.752 98.2449 21.088Z" fill="black"/>
</svg>
